# xmcd
#
# Track frame offsets: 
#        150
#        18029
#        39832
#        57557
#        77106
#        95416
#        117256
#        137933
#        152820
#        176219
#        193718
#        215595
#        239137
#        249014
#        260852
#        282660
#
# Disc length: 4029 seconds
#
# Revision: 0
# Processed by: cddbd v1.5.2PL0 Copyright (c) Steve Scherf et al.
# Submitted via: ExactAudioCopy v1.0b3
#
DISCID=ee0fbb10
DTITLE=Stoppok - Popschutz
DYEAR=2014
DGENRE=Blues
TTITLE0=Auf festem Grund
TTITLE1=La Kompostella
TTITLE2=Wie schnell ist nix passiert
TTITLE3=Kalter Kaffee ruhige See
TTITLE4=Ganz egal was auf der Fahne steht
TTITLE5=Ich sach ma so
TTITLE6=Wir woll'n unser Steak zart
TTITLE7=Es hätte nicht besser komm' könn'
TTITLE8=Geh aufrecht
TTITLE9=Was Du mir gestern erzählt hast
TTITLE10=Komm an Bord meine Liebe
TTITLE11=Alles klar
TTITLE12=Junge mach Dich Winterfest
TTITLE13=Der Weg zu Dir
TTITLE14=Das Model
TTITLE15=Beknackte Kneipe
EXTD=
EXTT0=
EXTT1=
EXTT2=
EXTT3=
EXTT4=
EXTT5=
EXTT6=
EXTT7=
EXTT8=
EXTT9=
EXTT10=
EXTT11=
EXTT12=
EXTT13=
EXTT14=
EXTT15=
PLAYORDER=
